%TF.GenerationSoftware,KiCad,Pcbnew,7.0.7*%
%TF.CreationDate,2024-04-10T19:08:45+02:00*%
%TF.ProjectId,ControllerCircuit,436f6e74-726f-46c6-9c65-724369726375,rev?*%
%TF.SameCoordinates,Original*%
%TF.FileFunction,Soldermask,Top*%
%TF.FilePolarity,Negative*%
%FSLAX46Y46*%
G04 Gerber Fmt 4.6, Leading zero omitted, Abs format (unit mm)*
G04 Created by KiCad (PCBNEW 7.0.7) date 2024-04-10 19:08:45*
%MOMM*%
%LPD*%
G01*
G04 APERTURE LIST*
G04 Aperture macros list*
%AMRoundRect*
0 Rectangle with rounded corners*
0 $1 Rounding radius*
0 $2 $3 $4 $5 $6 $7 $8 $9 X,Y pos of 4 corners*
0 Add a 4 corners polygon primitive as box body*
4,1,4,$2,$3,$4,$5,$6,$7,$8,$9,$2,$3,0*
0 Add four circle primitives for the rounded corners*
1,1,$1+$1,$2,$3*
1,1,$1+$1,$4,$5*
1,1,$1+$1,$6,$7*
1,1,$1+$1,$8,$9*
0 Add four rect primitives between the rounded corners*
20,1,$1+$1,$2,$3,$4,$5,0*
20,1,$1+$1,$4,$5,$6,$7,0*
20,1,$1+$1,$6,$7,$8,$9,0*
20,1,$1+$1,$8,$9,$2,$3,0*%
%AMFreePoly0*
4,1,19,0.500000,-0.750000,0.000000,-0.750000,0.000000,-0.744911,-0.071157,-0.744911,-0.207708,-0.704816,-0.327430,-0.627875,-0.420627,-0.520320,-0.479746,-0.390866,-0.500000,-0.250000,-0.500000,0.250000,-0.479746,0.390866,-0.420627,0.520320,-0.327430,0.627875,-0.207708,0.704816,-0.071157,0.744911,0.000000,0.744911,0.000000,0.750000,0.500000,0.750000,0.500000,-0.750000,0.500000,-0.750000,
$1*%
%AMFreePoly1*
4,1,19,0.000000,0.744911,0.071157,0.744911,0.207708,0.704816,0.327430,0.627875,0.420627,0.520320,0.479746,0.390866,0.500000,0.250000,0.500000,-0.250000,0.479746,-0.390866,0.420627,-0.520320,0.327430,-0.627875,0.207708,-0.704816,0.071157,-0.744911,0.000000,-0.744911,0.000000,-0.750000,-0.500000,-0.750000,-0.500000,0.750000,0.000000,0.750000,0.000000,0.744911,0.000000,0.744911,
$1*%
G04 Aperture macros list end*
%ADD10C,4.000000*%
%ADD11RoundRect,0.200000X-0.200000X-0.275000X0.200000X-0.275000X0.200000X0.275000X-0.200000X0.275000X0*%
%ADD12RoundRect,0.225000X-0.225000X-0.250000X0.225000X-0.250000X0.225000X0.250000X-0.225000X0.250000X0*%
%ADD13RoundRect,0.150000X-0.825000X-0.150000X0.825000X-0.150000X0.825000X0.150000X-0.825000X0.150000X0*%
%ADD14R,2.200000X2.200000*%
%ADD15C,2.200000*%
%ADD16R,1.800000X1.800000*%
%ADD17C,1.800000*%
%ADD18C,1.560000*%
%ADD19R,1.700000X1.700000*%
%ADD20O,1.700000X1.700000*%
%ADD21R,1.980000X1.980000*%
%ADD22C,2.000000*%
%ADD23R,1.900000X2.200000*%
%ADD24RoundRect,0.237500X-0.287500X-0.237500X0.287500X-0.237500X0.287500X0.237500X-0.287500X0.237500X0*%
%ADD25RoundRect,0.250000X-0.350000X-0.625000X0.350000X-0.625000X0.350000X0.625000X-0.350000X0.625000X0*%
%ADD26O,1.200000X1.750000*%
%ADD27RoundRect,0.250000X0.600000X-0.400000X0.600000X0.400000X-0.600000X0.400000X-0.600000X-0.400000X0*%
%ADD28RoundRect,0.150000X0.587500X0.150000X-0.587500X0.150000X-0.587500X-0.150000X0.587500X-0.150000X0*%
%ADD29RoundRect,0.200000X-0.275000X0.200000X-0.275000X-0.200000X0.275000X-0.200000X0.275000X0.200000X0*%
%ADD30RoundRect,0.250000X0.262500X0.450000X-0.262500X0.450000X-0.262500X-0.450000X0.262500X-0.450000X0*%
%ADD31RoundRect,0.150000X0.150000X-0.587500X0.150000X0.587500X-0.150000X0.587500X-0.150000X-0.587500X0*%
%ADD32RoundRect,0.250000X-0.712500X-2.475000X0.712500X-2.475000X0.712500X2.475000X-0.712500X2.475000X0*%
%ADD33RoundRect,0.250000X-0.537500X-0.425000X0.537500X-0.425000X0.537500X0.425000X-0.537500X0.425000X0*%
%ADD34R,1.500000X2.000000*%
%ADD35R,3.800000X2.000000*%
%ADD36R,0.640000X2.000000*%
%ADD37R,1.900000X1.900000*%
%ADD38C,1.900000*%
%ADD39RoundRect,0.200000X0.200000X0.275000X-0.200000X0.275000X-0.200000X-0.275000X0.200000X-0.275000X0*%
%ADD40R,1.000000X1.500000*%
%ADD41FreePoly0,180.000000*%
%ADD42FreePoly1,180.000000*%
%ADD43RoundRect,0.150000X-0.150000X0.587500X-0.150000X-0.587500X0.150000X-0.587500X0.150000X0.587500X0*%
%ADD44RoundRect,0.150000X-0.150000X0.662500X-0.150000X-0.662500X0.150000X-0.662500X0.150000X0.662500X0*%
%ADD45RoundRect,0.100000X-0.637500X-0.100000X0.637500X-0.100000X0.637500X0.100000X-0.637500X0.100000X0*%
%ADD46RoundRect,0.150000X-0.587500X-0.150000X0.587500X-0.150000X0.587500X0.150000X-0.587500X0.150000X0*%
%ADD47RoundRect,0.250000X0.325000X0.650000X-0.325000X0.650000X-0.325000X-0.650000X0.325000X-0.650000X0*%
%ADD48R,1.500000X0.800000*%
%ADD49R,2.000000X1.450000*%
%ADD50R,0.800000X0.300000*%
%ADD51C,3.200000*%
%ADD52R,2.000000X1.100000*%
%ADD53RoundRect,0.225000X0.225000X0.250000X-0.225000X0.250000X-0.225000X-0.250000X0.225000X-0.250000X0*%
%ADD54RoundRect,0.250000X-0.250000X-0.475000X0.250000X-0.475000X0.250000X0.475000X-0.250000X0.475000X0*%
%ADD55RoundRect,0.250000X-0.262500X-0.450000X0.262500X-0.450000X0.262500X0.450000X-0.262500X0.450000X0*%
%ADD56RoundRect,0.075000X-0.650000X-0.075000X0.650000X-0.075000X0.650000X0.075000X-0.650000X0.075000X0*%
%ADD57RoundRect,0.250000X-0.400000X-0.600000X0.400000X-0.600000X0.400000X0.600000X-0.400000X0.600000X0*%
%ADD58RoundRect,0.250000X0.625000X-0.312500X0.625000X0.312500X-0.625000X0.312500X-0.625000X-0.312500X0*%
%ADD59C,1.440000*%
%ADD60RoundRect,0.250000X-0.312500X-0.625000X0.312500X-0.625000X0.312500X0.625000X-0.312500X0.625000X0*%
%ADD61RoundRect,0.250000X-1.000000X-0.650000X1.000000X-0.650000X1.000000X0.650000X-1.000000X0.650000X0*%
G04 APERTURE END LIST*
D10*
%TO.C,REF1*%
X118650000Y83800000D03*
%TD*%
%TO.C,REF3*%
X118650000Y3850000D03*
%TD*%
D11*
%TO.C,R4*%
X10425000Y15800000D03*
X12075000Y15800000D03*
%TD*%
D12*
%TO.C,C6*%
X56375000Y22900000D03*
X57925000Y22900000D03*
%TD*%
%TO.C,C1*%
X50825000Y27250000D03*
X52375000Y27250000D03*
%TD*%
D11*
%TO.C,R9*%
X47015000Y15670000D03*
X48665000Y15670000D03*
%TD*%
D13*
%TO.C,U5*%
X46425000Y24155000D03*
X46425000Y22885000D03*
X46425000Y21615000D03*
X46425000Y20345000D03*
X51375000Y20345000D03*
X51375000Y21615000D03*
X51375000Y22885000D03*
X51375000Y24155000D03*
%TD*%
D14*
%TO.C,J7*%
X68249188Y7500000D03*
D15*
X72059188Y7500000D03*
X75869188Y7500000D03*
X79679188Y7500000D03*
%TD*%
D16*
%TO.C,U4*%
X3506394Y66570000D03*
D17*
X3506394Y64030000D03*
D18*
X3506394Y61490000D03*
X3506394Y58950000D03*
X3506394Y56410000D03*
X3506394Y53870000D03*
X3506394Y51330000D03*
X3506394Y48790000D03*
X3506394Y46250000D03*
X3506394Y43710000D03*
X3506394Y41170000D03*
X3506394Y38630000D03*
X3506394Y36090000D03*
X3506394Y33550000D03*
X3506394Y31010000D03*
X3506394Y28470000D03*
X3506394Y25930000D03*
D17*
X3506394Y23390000D03*
X3506394Y20850000D03*
X28906394Y66570000D03*
X28906394Y64030000D03*
D18*
X28906394Y61490000D03*
X28906394Y58950000D03*
X28906394Y56410000D03*
X28906394Y53870000D03*
X28906394Y51330000D03*
X28906394Y48790000D03*
D17*
X28906394Y46250000D03*
X28906394Y43710000D03*
D18*
X28906394Y41170000D03*
X28906394Y38630000D03*
X28906394Y36090000D03*
X28906394Y33550000D03*
X28906394Y31010000D03*
X28906394Y28470000D03*
X28906394Y25930000D03*
D17*
X28906394Y23390000D03*
X28906394Y20850000D03*
%TD*%
D14*
%TO.C,J1*%
X12099188Y7500000D03*
D15*
X15909188Y7500000D03*
X19719188Y7500000D03*
X23529188Y7500000D03*
%TD*%
D14*
%TO.C,J4*%
X51849188Y7500000D03*
D15*
X55659188Y7500000D03*
X59469188Y7500000D03*
X63279188Y7500000D03*
%TD*%
D19*
%TO.C,J8*%
X43200000Y6250000D03*
D20*
X43200000Y3710000D03*
X40660000Y6250000D03*
X40660000Y3710000D03*
X38120000Y6250000D03*
X38120000Y3710000D03*
%TD*%
D21*
%TO.C,K1*%
X109265000Y62700000D03*
D22*
X109265000Y74700000D03*
D23*
X111265000Y68700000D03*
X97065000Y62700000D03*
X97065000Y74700000D03*
%TD*%
D11*
%TO.C,R12*%
X90925000Y83700000D03*
X92575000Y83700000D03*
%TD*%
D24*
%TO.C,D3*%
X90725000Y85550000D03*
X92475000Y85550000D03*
%TD*%
D25*
%TO.C,J10*%
X28450000Y7750000D03*
D26*
X30450000Y7750000D03*
%TD*%
D11*
%TO.C,R1*%
X10425000Y17500000D03*
X12075000Y17500000D03*
%TD*%
%TO.C,R17*%
X10425000Y14100000D03*
X12075000Y14100000D03*
%TD*%
D10*
%TO.C,REF2*%
X3700000Y83800000D03*
%TD*%
%TO.C,REF4*%
X3700000Y3800000D03*
%TD*%
D27*
%TO.C,D2*%
X115550000Y64100000D03*
X115550000Y67600000D03*
%TD*%
D28*
%TO.C,Q1*%
X117737500Y69650000D03*
X117737500Y71550000D03*
X115862500Y70600000D03*
%TD*%
D29*
%TO.C,R10*%
X117950000Y67675000D03*
X117950000Y66025000D03*
%TD*%
D11*
%TO.C,R11*%
X116975000Y73700000D03*
X118625000Y73700000D03*
%TD*%
D30*
%TO.C,R3*%
X93292500Y22880000D03*
X91467500Y22880000D03*
%TD*%
D11*
%TO.C,R2*%
X86175000Y14500000D03*
X87825000Y14500000D03*
%TD*%
D29*
%TO.C,R8*%
X80300000Y68325000D03*
X80300000Y66675000D03*
%TD*%
D31*
%TO.C,Q3*%
X82150000Y68562500D03*
X84050000Y68562500D03*
X83100000Y70437500D03*
%TD*%
D32*
%TO.C,F1*%
X83362500Y75050000D03*
X90137500Y75050000D03*
%TD*%
D33*
%TO.C,C4*%
X88016700Y67836000D03*
X90891700Y67836000D03*
%TD*%
%TO.C,C3*%
X88012500Y70200000D03*
X90887500Y70200000D03*
%TD*%
D34*
%TO.C,U6*%
X90374200Y65121000D03*
X88074200Y65121000D03*
D35*
X88074200Y58821000D03*
D34*
X85774200Y65121000D03*
%TD*%
D36*
%TO.C,U9*%
X21980000Y70650000D03*
X24520000Y70650000D03*
X24520000Y76950000D03*
X21980000Y76950000D03*
%TD*%
D29*
%TO.C,R18*%
X19583400Y71678800D03*
X19583400Y70028800D03*
%TD*%
D37*
%TO.C,J2*%
X106475000Y83550000D03*
D38*
X101475000Y83550000D03*
X96475000Y83550000D03*
%TD*%
D39*
%TO.C,R19*%
X58875000Y21200000D03*
X57225000Y21200000D03*
%TD*%
D11*
%TO.C,R21*%
X40875000Y33500000D03*
X42525000Y33500000D03*
%TD*%
D12*
%TO.C,C2*%
X68825000Y21250000D03*
X70375000Y21250000D03*
%TD*%
D40*
%TO.C,JP1*%
X80650000Y20400000D03*
X81950000Y20400000D03*
%TD*%
D39*
%TO.C,R24*%
X12825000Y12000000D03*
X11175000Y12000000D03*
%TD*%
D36*
%TO.C,U12*%
X13730000Y70650000D03*
X16270000Y70650000D03*
X16270000Y76950000D03*
X13730000Y76950000D03*
%TD*%
D14*
%TO.C,J12*%
X24450812Y80050000D03*
D15*
X20640812Y80050000D03*
X16830812Y80050000D03*
X13020812Y80050000D03*
%TD*%
D41*
%TO.C,JP4*%
X51890000Y15660000D03*
D42*
X50590000Y15660000D03*
%TD*%
D43*
%TO.C,D8*%
X79990000Y13937500D03*
X78090000Y13937500D03*
X79040000Y12062500D03*
%TD*%
D14*
%TO.C,J5*%
X84840812Y80050000D03*
D15*
X81030812Y80050000D03*
%TD*%
D44*
%TO.C,U2*%
X92943320Y20607000D03*
X91673320Y20607000D03*
X91673320Y14232000D03*
X92943320Y14232000D03*
%TD*%
D19*
%TO.C,J14*%
X101800000Y25300000D03*
D20*
X104340000Y25300000D03*
X106880000Y25300000D03*
X109420000Y25300000D03*
X111960000Y25300000D03*
X114500000Y25300000D03*
X117040000Y25300000D03*
%TD*%
D12*
%TO.C,C10*%
X98125000Y54150000D03*
X99675000Y54150000D03*
%TD*%
%TO.C,C7*%
X97166000Y16129000D03*
X98716000Y16129000D03*
%TD*%
D11*
%TO.C,R7*%
X100545000Y12827000D03*
X102195000Y12827000D03*
%TD*%
%TO.C,R26*%
X97096000Y12827000D03*
X98746000Y12827000D03*
%TD*%
D22*
%TO.C,SW1*%
X100100000Y1600000D03*
X100100000Y8100000D03*
X104600000Y1600000D03*
X104600000Y8100000D03*
%TD*%
%TO.C,SW2*%
X107750000Y1600000D03*
X107750000Y8100000D03*
X112250000Y1600000D03*
X112250000Y8100000D03*
%TD*%
D11*
%TO.C,R27*%
X107911000Y12827000D03*
X109561000Y12827000D03*
%TD*%
D12*
%TO.C,C11*%
X104532000Y16129000D03*
X106082000Y16129000D03*
%TD*%
D11*
%TO.C,R28*%
X104462000Y12827000D03*
X106112000Y12827000D03*
%TD*%
D45*
%TO.C,U3*%
X57137500Y18975000D03*
X57137500Y18325000D03*
X57137500Y17675000D03*
X57137500Y17025000D03*
X57137500Y16375000D03*
X57137500Y15725000D03*
X57137500Y15075000D03*
X57137500Y14425000D03*
X57137500Y13775000D03*
X57137500Y13125000D03*
X57137500Y12475000D03*
X57137500Y11825000D03*
X62862500Y11825000D03*
X62862500Y12475000D03*
X62862500Y13125000D03*
X62862500Y13775000D03*
X62862500Y14425000D03*
X62862500Y15075000D03*
X62862500Y15725000D03*
X62862500Y16375000D03*
X62862500Y17025000D03*
X62862500Y17675000D03*
X62862500Y18325000D03*
X62862500Y18975000D03*
%TD*%
D46*
%TO.C,Q4*%
X86082500Y19575000D03*
X86082500Y17675000D03*
X87957500Y18625000D03*
%TD*%
D11*
%TO.C,R20*%
X86175000Y22880000D03*
X87825000Y22880000D03*
%TD*%
D47*
%TO.C,C5*%
X69175000Y16600000D03*
X66225000Y16600000D03*
%TD*%
D11*
%TO.C,R29*%
X2925000Y69650000D03*
X4575000Y69650000D03*
%TD*%
D48*
%TO.C,J15*%
X98600000Y41195000D03*
X98600000Y42295000D03*
X98600000Y43395000D03*
X98600000Y44495000D03*
X98600000Y45595000D03*
X98600000Y46695000D03*
X98600000Y47795000D03*
X98600000Y48895000D03*
D49*
X96000000Y37525000D03*
X104300000Y37525000D03*
X104300000Y51275000D03*
X96000000Y51275000D03*
%TD*%
D22*
%TO.C,FID1*%
X9300000Y84100000D03*
%TD*%
%TO.C,FID2*%
X7300000Y10150000D03*
%TD*%
%TO.C,FID3*%
X113200000Y11850000D03*
%TD*%
%TO.C,FID4*%
X113750000Y81000000D03*
%TD*%
D12*
%TO.C,C9*%
X78525000Y25200000D03*
X80075000Y25200000D03*
%TD*%
D50*
%TO.C,U1*%
X73550000Y25730000D03*
X73550000Y25230000D03*
X73550000Y24730000D03*
X73550000Y24230000D03*
X76650000Y24230000D03*
X76650000Y24730000D03*
X76650000Y25230000D03*
X76650000Y25730000D03*
%TD*%
D13*
%TO.C,U7*%
X72725000Y21805000D03*
X72725000Y20535000D03*
X72725000Y19265000D03*
X72725000Y17995000D03*
X77675000Y17995000D03*
X77675000Y19265000D03*
X77675000Y20535000D03*
X77675000Y21805000D03*
%TD*%
D39*
%TO.C,R6*%
X82025000Y17200000D03*
X80375000Y17200000D03*
%TD*%
D51*
%TO.C,LCD1*%
X116550000Y13625000D03*
X116550000Y57625000D03*
X40550000Y13625000D03*
X40550000Y57625000D03*
D19*
X35550000Y19125000D03*
D20*
X35550000Y21665000D03*
X35550000Y24205000D03*
X35550000Y26745000D03*
X35550000Y29285000D03*
X35550000Y31825000D03*
X35550000Y34365000D03*
X35550000Y36905000D03*
X35550000Y39445000D03*
X35550000Y41985000D03*
X35550000Y44525000D03*
X35550000Y47065000D03*
X35550000Y49605000D03*
X35550000Y52145000D03*
X117050000Y32125000D03*
X117050000Y34665000D03*
X117050000Y37205000D03*
X117050000Y39745000D03*
%TD*%
D12*
%TO.C,C8*%
X72625000Y28300000D03*
X74175000Y28300000D03*
%TD*%
D52*
%TO.C,D1*%
X8100000Y14100000D03*
X8100000Y15800000D03*
X8100000Y17500000D03*
X3300000Y17500000D03*
X3300000Y15800000D03*
X3300000Y14100000D03*
%TD*%
D11*
%TO.C,R22*%
X93175000Y54180000D03*
X94825000Y54180000D03*
%TD*%
%TO.C,R16*%
X2850000Y73050000D03*
X4500000Y73050000D03*
%TD*%
D39*
%TO.C,R5*%
X8025000Y73050000D03*
X6375000Y73050000D03*
%TD*%
%TO.C,R25*%
X11525000Y73050000D03*
X9875000Y73050000D03*
%TD*%
D53*
%TO.C,C14*%
X46824802Y61466000D03*
X45274802Y61466000D03*
%TD*%
D14*
%TO.C,J9*%
X49600812Y80050000D03*
D15*
X45790812Y80050000D03*
X41980812Y80050000D03*
X38170812Y80050000D03*
%TD*%
D53*
%TO.C,C13*%
X46814802Y63366000D03*
X45264802Y63366000D03*
%TD*%
D54*
%TO.C,C12*%
X45039802Y65566000D03*
X46939802Y65566000D03*
%TD*%
D55*
%TO.C,R30*%
X48787302Y67566000D03*
X50612302Y67566000D03*
%TD*%
%TO.C,R23*%
X45077302Y67566000D03*
X46902302Y67566000D03*
%TD*%
D56*
%TO.C,U8*%
X37949802Y68566000D03*
X37949802Y68066000D03*
X37949802Y67566000D03*
X37949802Y67066000D03*
X37949802Y66566000D03*
X42349802Y66566000D03*
X42349802Y67066000D03*
X42349802Y67566000D03*
X42349802Y68066000D03*
X42349802Y68566000D03*
%TD*%
D21*
%TO.C,K2*%
X70100000Y62750000D03*
D22*
X70100000Y74750000D03*
D23*
X72100000Y68750000D03*
X57900000Y62750000D03*
X57900000Y74750000D03*
%TD*%
D31*
%TO.C,Q2*%
X65725000Y56912500D03*
X67625000Y56912500D03*
X66675000Y58787500D03*
%TD*%
D39*
%TO.C,R14*%
X63800000Y57000000D03*
X62150000Y57000000D03*
%TD*%
D29*
%TO.C,R15*%
X69725000Y58655000D03*
X69725000Y57005000D03*
%TD*%
D24*
%TO.C,D4*%
X71425000Y84800000D03*
X73175000Y84800000D03*
%TD*%
D57*
%TO.C,D5*%
X59925000Y59300000D03*
X63425000Y59300000D03*
%TD*%
D37*
%TO.C,J3*%
X67310000Y83600000D03*
D38*
X62310000Y83600000D03*
X57310000Y83600000D03*
%TD*%
D11*
%TO.C,R13*%
X71525000Y82800000D03*
X73175000Y82800000D03*
%TD*%
D39*
%TO.C,R31*%
X42959802Y63316000D03*
X41309802Y63316000D03*
%TD*%
%TO.C,R32*%
X39454802Y63266000D03*
X37804802Y63266000D03*
%TD*%
D58*
%TO.C,R35*%
X31648400Y83627500D03*
X31648400Y86552500D03*
%TD*%
D14*
%TO.C,J17*%
X84649188Y7500000D03*
D15*
X88459188Y7500000D03*
X92269188Y7500000D03*
X96079188Y7500000D03*
%TD*%
D59*
%TO.C,RV1*%
X29606400Y75387200D03*
X32146400Y75387200D03*
X34686400Y75387200D03*
%TD*%
D60*
%TO.C,R34*%
X41006300Y72136000D03*
X43931300Y72136000D03*
%TD*%
D61*
%TO.C,D6*%
X41764200Y75412600D03*
X45764200Y75412600D03*
%TD*%
D58*
%TO.C,R33*%
X31648400Y78953900D03*
X31648400Y81878900D03*
%TD*%
M02*
