%TF.GenerationSoftware,KiCad,Pcbnew,7.0.7*%
%TF.CreationDate,2024-04-10T19:08:45+02:00*%
%TF.ProjectId,ControllerCircuit,436f6e74-726f-46c6-9c65-724369726375,rev?*%
%TF.SameCoordinates,Original*%
%TF.FileFunction,Paste,Top*%
%TF.FilePolarity,Positive*%
%FSLAX46Y46*%
G04 Gerber Fmt 4.6, Leading zero omitted, Abs format (unit mm)*
G04 Created by KiCad (PCBNEW 7.0.7) date 2024-04-10 19:08:45*
%MOMM*%
%LPD*%
G01*
G04 APERTURE LIST*
G04 Aperture macros list*
%AMRoundRect*
0 Rectangle with rounded corners*
0 $1 Rounding radius*
0 $2 $3 $4 $5 $6 $7 $8 $9 X,Y pos of 4 corners*
0 Add a 4 corners polygon primitive as box body*
4,1,4,$2,$3,$4,$5,$6,$7,$8,$9,$2,$3,0*
0 Add four circle primitives for the rounded corners*
1,1,$1+$1,$2,$3*
1,1,$1+$1,$4,$5*
1,1,$1+$1,$6,$7*
1,1,$1+$1,$8,$9*
0 Add four rect primitives between the rounded corners*
20,1,$1+$1,$2,$3,$4,$5,0*
20,1,$1+$1,$4,$5,$6,$7,0*
20,1,$1+$1,$6,$7,$8,$9,0*
20,1,$1+$1,$8,$9,$2,$3,0*%
G04 Aperture macros list end*
%ADD10RoundRect,0.200000X-0.200000X-0.275000X0.200000X-0.275000X0.200000X0.275000X-0.200000X0.275000X0*%
%ADD11RoundRect,0.225000X-0.225000X-0.250000X0.225000X-0.250000X0.225000X0.250000X-0.225000X0.250000X0*%
%ADD12RoundRect,0.150000X-0.825000X-0.150000X0.825000X-0.150000X0.825000X0.150000X-0.825000X0.150000X0*%
%ADD13RoundRect,0.237500X-0.287500X-0.237500X0.287500X-0.237500X0.287500X0.237500X-0.287500X0.237500X0*%
%ADD14RoundRect,0.250000X0.600000X-0.400000X0.600000X0.400000X-0.600000X0.400000X-0.600000X-0.400000X0*%
%ADD15RoundRect,0.150000X0.587500X0.150000X-0.587500X0.150000X-0.587500X-0.150000X0.587500X-0.150000X0*%
%ADD16RoundRect,0.200000X-0.275000X0.200000X-0.275000X-0.200000X0.275000X-0.200000X0.275000X0.200000X0*%
%ADD17RoundRect,0.250000X0.262500X0.450000X-0.262500X0.450000X-0.262500X-0.450000X0.262500X-0.450000X0*%
%ADD18RoundRect,0.150000X0.150000X-0.587500X0.150000X0.587500X-0.150000X0.587500X-0.150000X-0.587500X0*%
%ADD19RoundRect,0.250000X-0.712500X-2.475000X0.712500X-2.475000X0.712500X2.475000X-0.712500X2.475000X0*%
%ADD20RoundRect,0.250000X-0.537500X-0.425000X0.537500X-0.425000X0.537500X0.425000X-0.537500X0.425000X0*%
%ADD21R,1.500000X2.000000*%
%ADD22R,3.800000X2.000000*%
%ADD23R,0.640000X2.000000*%
%ADD24RoundRect,0.200000X0.200000X0.275000X-0.200000X0.275000X-0.200000X-0.275000X0.200000X-0.275000X0*%
%ADD25RoundRect,0.150000X-0.150000X0.587500X-0.150000X-0.587500X0.150000X-0.587500X0.150000X0.587500X0*%
%ADD26RoundRect,0.150000X-0.150000X0.662500X-0.150000X-0.662500X0.150000X-0.662500X0.150000X0.662500X0*%
%ADD27RoundRect,0.100000X-0.637500X-0.100000X0.637500X-0.100000X0.637500X0.100000X-0.637500X0.100000X0*%
%ADD28RoundRect,0.150000X-0.587500X-0.150000X0.587500X-0.150000X0.587500X0.150000X-0.587500X0.150000X0*%
%ADD29RoundRect,0.250000X0.325000X0.650000X-0.325000X0.650000X-0.325000X-0.650000X0.325000X-0.650000X0*%
%ADD30R,1.500000X0.800000*%
%ADD31R,2.000000X1.450000*%
%ADD32R,0.800000X0.300000*%
%ADD33R,2.000000X1.100000*%
%ADD34RoundRect,0.225000X0.225000X0.250000X-0.225000X0.250000X-0.225000X-0.250000X0.225000X-0.250000X0*%
%ADD35RoundRect,0.250000X-0.250000X-0.475000X0.250000X-0.475000X0.250000X0.475000X-0.250000X0.475000X0*%
%ADD36RoundRect,0.250000X-0.262500X-0.450000X0.262500X-0.450000X0.262500X0.450000X-0.262500X0.450000X0*%
%ADD37RoundRect,0.075000X-0.650000X-0.075000X0.650000X-0.075000X0.650000X0.075000X-0.650000X0.075000X0*%
%ADD38RoundRect,0.250000X-0.400000X-0.600000X0.400000X-0.600000X0.400000X0.600000X-0.400000X0.600000X0*%
%ADD39RoundRect,0.250000X0.625000X-0.312500X0.625000X0.312500X-0.625000X0.312500X-0.625000X-0.312500X0*%
%ADD40RoundRect,0.250000X-0.312500X-0.625000X0.312500X-0.625000X0.312500X0.625000X-0.312500X0.625000X0*%
%ADD41RoundRect,0.250000X-1.000000X-0.650000X1.000000X-0.650000X1.000000X0.650000X-1.000000X0.650000X0*%
G04 APERTURE END LIST*
D10*
%TO.C,R4*%
X10425000Y15800000D03*
X12075000Y15800000D03*
%TD*%
D11*
%TO.C,C6*%
X56375000Y22900000D03*
X57925000Y22900000D03*
%TD*%
%TO.C,C1*%
X50825000Y27250000D03*
X52375000Y27250000D03*
%TD*%
D10*
%TO.C,R9*%
X47015000Y15670000D03*
X48665000Y15670000D03*
%TD*%
D12*
%TO.C,U5*%
X46425000Y24155000D03*
X46425000Y22885000D03*
X46425000Y21615000D03*
X46425000Y20345000D03*
X51375000Y20345000D03*
X51375000Y21615000D03*
X51375000Y22885000D03*
X51375000Y24155000D03*
%TD*%
D10*
%TO.C,R12*%
X90925000Y83700000D03*
X92575000Y83700000D03*
%TD*%
D13*
%TO.C,D3*%
X90725000Y85550000D03*
X92475000Y85550000D03*
%TD*%
D10*
%TO.C,R1*%
X10425000Y17500000D03*
X12075000Y17500000D03*
%TD*%
%TO.C,R17*%
X10425000Y14100000D03*
X12075000Y14100000D03*
%TD*%
D14*
%TO.C,D2*%
X115550000Y64100000D03*
X115550000Y67600000D03*
%TD*%
D15*
%TO.C,Q1*%
X117737500Y69650000D03*
X117737500Y71550000D03*
X115862500Y70600000D03*
%TD*%
D16*
%TO.C,R10*%
X117950000Y67675000D03*
X117950000Y66025000D03*
%TD*%
D10*
%TO.C,R11*%
X116975000Y73700000D03*
X118625000Y73700000D03*
%TD*%
D17*
%TO.C,R3*%
X93292500Y22880000D03*
X91467500Y22880000D03*
%TD*%
D10*
%TO.C,R2*%
X86175000Y14500000D03*
X87825000Y14500000D03*
%TD*%
D16*
%TO.C,R8*%
X80300000Y68325000D03*
X80300000Y66675000D03*
%TD*%
D18*
%TO.C,Q3*%
X82150000Y68562500D03*
X84050000Y68562500D03*
X83100000Y70437500D03*
%TD*%
D19*
%TO.C,F1*%
X83362500Y75050000D03*
X90137500Y75050000D03*
%TD*%
D20*
%TO.C,C4*%
X88016700Y67836000D03*
X90891700Y67836000D03*
%TD*%
%TO.C,C3*%
X88012500Y70200000D03*
X90887500Y70200000D03*
%TD*%
D21*
%TO.C,U6*%
X90374200Y65121000D03*
X88074200Y65121000D03*
D22*
X88074200Y58821000D03*
D21*
X85774200Y65121000D03*
%TD*%
D23*
%TO.C,U9*%
X21980000Y70650000D03*
X24520000Y70650000D03*
X24520000Y76950000D03*
X21980000Y76950000D03*
%TD*%
D16*
%TO.C,R18*%
X19583400Y71678800D03*
X19583400Y70028800D03*
%TD*%
D24*
%TO.C,R19*%
X58875000Y21200000D03*
X57225000Y21200000D03*
%TD*%
D10*
%TO.C,R21*%
X40875000Y33500000D03*
X42525000Y33500000D03*
%TD*%
D11*
%TO.C,C2*%
X68825000Y21250000D03*
X70375000Y21250000D03*
%TD*%
D24*
%TO.C,R24*%
X12825000Y12000000D03*
X11175000Y12000000D03*
%TD*%
D23*
%TO.C,U12*%
X13730000Y70650000D03*
X16270000Y70650000D03*
X16270000Y76950000D03*
X13730000Y76950000D03*
%TD*%
D25*
%TO.C,D8*%
X79990000Y13937500D03*
X78090000Y13937500D03*
X79040000Y12062500D03*
%TD*%
D26*
%TO.C,U2*%
X92943320Y20607000D03*
X91673320Y20607000D03*
X91673320Y14232000D03*
X92943320Y14232000D03*
%TD*%
D11*
%TO.C,C10*%
X98125000Y54150000D03*
X99675000Y54150000D03*
%TD*%
%TO.C,C7*%
X97166000Y16129000D03*
X98716000Y16129000D03*
%TD*%
D10*
%TO.C,R7*%
X100545000Y12827000D03*
X102195000Y12827000D03*
%TD*%
%TO.C,R26*%
X97096000Y12827000D03*
X98746000Y12827000D03*
%TD*%
%TO.C,R27*%
X107911000Y12827000D03*
X109561000Y12827000D03*
%TD*%
D11*
%TO.C,C11*%
X104532000Y16129000D03*
X106082000Y16129000D03*
%TD*%
D10*
%TO.C,R28*%
X104462000Y12827000D03*
X106112000Y12827000D03*
%TD*%
D27*
%TO.C,U3*%
X57137500Y18975000D03*
X57137500Y18325000D03*
X57137500Y17675000D03*
X57137500Y17025000D03*
X57137500Y16375000D03*
X57137500Y15725000D03*
X57137500Y15075000D03*
X57137500Y14425000D03*
X57137500Y13775000D03*
X57137500Y13125000D03*
X57137500Y12475000D03*
X57137500Y11825000D03*
X62862500Y11825000D03*
X62862500Y12475000D03*
X62862500Y13125000D03*
X62862500Y13775000D03*
X62862500Y14425000D03*
X62862500Y15075000D03*
X62862500Y15725000D03*
X62862500Y16375000D03*
X62862500Y17025000D03*
X62862500Y17675000D03*
X62862500Y18325000D03*
X62862500Y18975000D03*
%TD*%
D28*
%TO.C,Q4*%
X86082500Y19575000D03*
X86082500Y17675000D03*
X87957500Y18625000D03*
%TD*%
D10*
%TO.C,R20*%
X86175000Y22880000D03*
X87825000Y22880000D03*
%TD*%
D29*
%TO.C,C5*%
X69175000Y16600000D03*
X66225000Y16600000D03*
%TD*%
D10*
%TO.C,R29*%
X2925000Y69650000D03*
X4575000Y69650000D03*
%TD*%
D30*
%TO.C,J15*%
X98600000Y41195000D03*
X98600000Y42295000D03*
X98600000Y43395000D03*
X98600000Y44495000D03*
X98600000Y45595000D03*
X98600000Y46695000D03*
X98600000Y47795000D03*
X98600000Y48895000D03*
D31*
X96000000Y37525000D03*
X104300000Y37525000D03*
X104300000Y51275000D03*
X96000000Y51275000D03*
%TD*%
D11*
%TO.C,C9*%
X78525000Y25200000D03*
X80075000Y25200000D03*
%TD*%
D32*
%TO.C,U1*%
X73550000Y25730000D03*
X73550000Y25230000D03*
X73550000Y24730000D03*
X73550000Y24230000D03*
X76650000Y24230000D03*
X76650000Y24730000D03*
X76650000Y25230000D03*
X76650000Y25730000D03*
%TD*%
D12*
%TO.C,U7*%
X72725000Y21805000D03*
X72725000Y20535000D03*
X72725000Y19265000D03*
X72725000Y17995000D03*
X77675000Y17995000D03*
X77675000Y19265000D03*
X77675000Y20535000D03*
X77675000Y21805000D03*
%TD*%
D24*
%TO.C,R6*%
X82025000Y17200000D03*
X80375000Y17200000D03*
%TD*%
D11*
%TO.C,C8*%
X72625000Y28300000D03*
X74175000Y28300000D03*
%TD*%
D33*
%TO.C,D1*%
X8100000Y14100000D03*
X8100000Y15800000D03*
X8100000Y17500000D03*
X3300000Y17500000D03*
X3300000Y15800000D03*
X3300000Y14100000D03*
%TD*%
D10*
%TO.C,R22*%
X93175000Y54180000D03*
X94825000Y54180000D03*
%TD*%
%TO.C,R16*%
X2850000Y73050000D03*
X4500000Y73050000D03*
%TD*%
D24*
%TO.C,R5*%
X8025000Y73050000D03*
X6375000Y73050000D03*
%TD*%
%TO.C,R25*%
X11525000Y73050000D03*
X9875000Y73050000D03*
%TD*%
D34*
%TO.C,C14*%
X46824802Y61466000D03*
X45274802Y61466000D03*
%TD*%
%TO.C,C13*%
X46814802Y63366000D03*
X45264802Y63366000D03*
%TD*%
D35*
%TO.C,C12*%
X45039802Y65566000D03*
X46939802Y65566000D03*
%TD*%
D36*
%TO.C,R30*%
X48787302Y67566000D03*
X50612302Y67566000D03*
%TD*%
%TO.C,R23*%
X45077302Y67566000D03*
X46902302Y67566000D03*
%TD*%
D37*
%TO.C,U8*%
X37949802Y68566000D03*
X37949802Y68066000D03*
X37949802Y67566000D03*
X37949802Y67066000D03*
X37949802Y66566000D03*
X42349802Y66566000D03*
X42349802Y67066000D03*
X42349802Y67566000D03*
X42349802Y68066000D03*
X42349802Y68566000D03*
%TD*%
D18*
%TO.C,Q2*%
X65725000Y56912500D03*
X67625000Y56912500D03*
X66675000Y58787500D03*
%TD*%
D24*
%TO.C,R14*%
X63800000Y57000000D03*
X62150000Y57000000D03*
%TD*%
D16*
%TO.C,R15*%
X69725000Y58655000D03*
X69725000Y57005000D03*
%TD*%
D13*
%TO.C,D4*%
X71425000Y84800000D03*
X73175000Y84800000D03*
%TD*%
D38*
%TO.C,D5*%
X59925000Y59300000D03*
X63425000Y59300000D03*
%TD*%
D10*
%TO.C,R13*%
X71525000Y82800000D03*
X73175000Y82800000D03*
%TD*%
D24*
%TO.C,R31*%
X42959802Y63316000D03*
X41309802Y63316000D03*
%TD*%
%TO.C,R32*%
X39454802Y63266000D03*
X37804802Y63266000D03*
%TD*%
D39*
%TO.C,R35*%
X31648400Y83627500D03*
X31648400Y86552500D03*
%TD*%
D40*
%TO.C,R34*%
X41006300Y72136000D03*
X43931300Y72136000D03*
%TD*%
D41*
%TO.C,D6*%
X41764200Y75412600D03*
X45764200Y75412600D03*
%TD*%
D39*
%TO.C,R33*%
X31648400Y78953900D03*
X31648400Y81878900D03*
%TD*%
M02*
