M48
; DRILL file {KiCad 7.0.7} date Wed Apr 10 19:08:45 2024
; FORMAT={-:-/ absolute / inch / decimal}
; #@! TF.CreationDate,2024-04-10T19:08:45+02:00
; #@! TF.GenerationSoftware,Kicad,Pcbnew,7.0.7
; #@! TF.FileFunction,Plated,1,2,PTH
FMAT,2
INCH
; #@! TA.AperFunction,Plated,PTH,ViaDrill
T1C0.0157
; #@! TA.AperFunction,Plated,PTH,ComponentDrill
T2C0.0295
; #@! TA.AperFunction,Plated,PTH,ComponentDrill
T3C0.0315
; #@! TA.AperFunction,Plated,PTH,ComponentDrill
T4C0.0394
; #@! TA.AperFunction,Plated,PTH,ComponentDrill
T5C0.0409
; #@! TA.AperFunction,Plated,PTH,ComponentDrill
T6C0.0433
; #@! TA.AperFunction,Plated,PTH,ComponentDrill
T7C0.0472
; #@! TA.AperFunction,Plated,PTH,ComponentDrill
T8C0.0520
%
G90
G05
T1
X0.0971Y2.8123
X0.112Y3.037
X0.1354Y0.4284
X0.1354Y0.389
X0.1494Y3.037
X0.1748Y0.4284
X0.1748Y0.389
X0.1888Y3.037
X0.2226Y1.7384
X0.3134Y2.8079
X0.316Y2.0464
X0.316Y2.007
X0.3554Y2.0464
X0.3554Y2.007
X0.3898Y2.6339
X0.3928Y2.0464
X0.3928Y2.007
X0.4431Y2.6339
X0.4964Y2.6339
X0.4976Y0.9469
X0.4976Y0.9075
X0.5177Y0.5512
X0.537Y0.9469
X0.537Y0.9075
X0.5497Y2.6339
X0.5544Y2.3957
X0.563Y0.3937
X0.5851Y0.5758
X0.6031Y2.6339
X0.6043Y0.3917
X0.6063Y0.6122
X0.6077Y2.3957
X0.628Y0.5187
X0.6564Y2.6339
X0.6611Y2.3957
X0.7087Y2.8159
X0.7087Y2.7756
X0.7097Y2.6339
X0.7144Y2.3957
X0.7205Y0.7224
X0.721Y0.9168
X0.721Y0.8774
X0.7539Y0.6781
X0.757Y1.7954
X0.757Y1.756
X0.7603Y0.9168
X0.7603Y0.8774
X0.7631Y2.6339
X0.7677Y2.3957
X0.7874Y0.3937
X0.7963Y1.7954
X0.7963Y1.756
X0.7992Y0.6339
X0.803Y2.5305
X0.8164Y2.6339
X0.8169Y0.4193
X0.8248Y1.3428
X0.8248Y1.3034
X0.829Y1.5941
X0.829Y1.5547
X0.8337Y1.7954
X0.8337Y1.756
X0.8451Y1.1793
X0.8642Y1.3428
X0.8642Y1.3034
X0.8684Y1.5941
X0.8684Y1.5547
X0.8697Y2.6339
X0.8845Y1.1793
X0.9409Y0.3807
X0.961Y2.385
X0.9799Y0.3807
X1.0026Y1.7698
X1.0026Y1.7304
X1.0181Y0.3807
X1.0197Y2.7815
X1.0374Y0.999
X1.0374Y0.9636
X1.0374Y0.9242
X1.0378Y1.373
X1.0846Y0.6319
X1.1713Y0.3839
X1.1762Y2.7136
X1.2283Y2.1685
X1.2402Y0.3839
X1.2598Y2.564
X1.2603Y2.625
X1.2608Y2.503
X1.2677Y1.9567
X1.2677Y1.9173
X1.3407Y2.3696
X1.3514Y0.5207
X1.3767Y2.3536
X1.3976Y2.6896
X1.407Y2.422
X1.427Y2.489
X1.4921Y1.8504
X1.4921Y1.5157
X1.5Y1.5709
X1.5035Y0.7288
X1.5354Y1.8504
X1.566Y0.751
X1.585Y2.0083
X1.5925Y2.4455
X1.6004Y2.6266
X1.6102Y0.689
X1.6181Y2.5951
X1.6211Y2.1453
X1.6299Y0.7697
X1.6492Y1.0169
X1.6492Y0.9776
X1.6492Y0.9382
X1.6604Y2.1453
X1.6614Y1.6526
X1.6614Y1.1565
X1.6614Y0.7244
X1.6831Y1.2579
X1.6969Y0.7598
X1.6978Y2.1453
X1.7146Y1.6526
X1.7165Y1.1201
X1.7411Y0.8543
X1.753Y1.9769
X1.7598Y1.1467
X1.7598Y0.7614
X1.7736Y2.3431
X1.7846Y2.7954
X1.7846Y2.756
X1.7904Y1.9769
X1.815Y1.0394
X1.815Y1.2795
X1.8209Y0.7343
X1.824Y2.7954
X1.824Y2.756
X1.876Y1.4134
X1.876Y1.374
X1.8832Y1.1034
X1.9232Y0.4803
X1.9429Y1.9744
X1.9429Y1.935
X1.9803Y0.4803
X1.986Y2.181
X1.986Y2.1416
X2.0206Y2.5318
X2.0206Y2.4924
X2.0206Y2.455
X2.0217Y0.748
X2.0217Y0.6831
X2.0254Y2.181
X2.0254Y2.1416
X2.029Y1.6535
X2.0374Y1.4154
X2.0374Y1.376
X2.06Y2.5318
X2.06Y2.4924
X2.06Y2.455
X2.0628Y2.181
X2.0628Y2.1416
X2.0846Y1.2362
X2.1043Y1.6535
X2.1123Y0.9074
X2.128Y0.9882
X2.1339Y1.0512
X2.1458Y0.4793
X2.1516Y0.9094
X2.1708Y0.9907
X2.1772Y0.4598
X2.1801Y0.6496
X2.1801Y0.766
X2.2086Y0.8419
X2.2372Y0.9606
X2.2638Y1.6535
X2.2805Y1.4333
X2.3071Y1.0315
X2.3071Y0.9921
X2.3199Y1.4333
X2.334Y0.6902
X2.3384Y1.9999
X2.3441Y0.6363
X2.3475Y0.5971
X2.3504Y1.2795
X2.3543Y1.8356
X2.3622Y1.6535
X2.3777Y1.9999
X2.3957Y2.249
X2.4035Y1.8848
X2.4151Y1.9999
X2.438Y1.3179
X2.5178Y0.7963
X2.5256Y0.9469
X2.5256Y0.8976
X2.5276Y0.8465
X2.5748Y1.3937
X2.5748Y1.3268
X2.5748Y1.2598
X2.5787Y0.4803
X2.5787Y0.4409
X2.5945Y0.8307
X2.5945Y0.7756
X2.6317Y1.7814
X2.6317Y1.742
X2.6535Y0.7717
X2.6575Y0.7362
X2.6811Y0.7126
X2.7205Y1.2677
X2.7244Y0.5118
X2.7264Y0.5591
X2.7333Y1.0916
X2.7421Y1.3051
X2.748Y0.9331
X2.7756Y0.6535
X2.7795Y0.7717
X2.7815Y2.1083
X2.7854Y2.1614
X2.7884Y1.253
X2.7911Y1.9871
X2.8305Y1.9871
X2.8307Y1.0433
X2.8307Y0.3661
X2.8425Y0.9055
X2.8504Y0.5
X2.8679Y1.9871
X2.874Y0.626
X2.8858Y3.2028
X2.8927Y2.2652
X2.9102Y1.7686
X2.9102Y1.7292
X2.9238Y0.3652
X2.9331Y0.8071
X2.9341Y2.2652
X2.9488Y1.4961
X2.9488Y1.4488
X2.9567Y0.5
X2.9693Y1.2136
X2.9744Y0.9075
X2.9754Y2.2652
X2.9843Y0.626
X3.0011Y2.6199
X3.0011Y2.5825
X3.0011Y2.5431
X3.0097Y3.0177
X3.0098Y3.2067
X3.0098Y3.1693
X3.0098Y3.0571
X3.0098Y2.9409
X3.0098Y2.9035
X3.0197Y1.3268
X3.0239Y1.1959
X3.0276Y1.0551
X3.0405Y2.6199
X3.0405Y2.5825
X3.0405Y2.5431
X3.0413Y0.3545
X3.063Y0.9291
X3.0807Y0.3545
X3.1181Y1.0787
X3.1189Y1.6328
X3.1189Y1.5934
X3.123Y2.436
X3.123Y2.3947
X3.123Y2.3514
X3.1339Y0.8819
X3.1582Y1.6328
X3.1582Y1.5934
X3.1776Y2.1273
X3.1779Y1.9841
X3.1811Y1.0787
X3.189Y2.2657
X3.1956Y1.6328
X3.1956Y1.5934
X3.215Y2.1273
X3.2173Y1.9841
X3.2284Y2.2657
X3.248Y0.5079
X3.2547Y1.9841
X3.2677Y2.2657
X3.2992Y0.6102
X3.3051Y0.7126
X3.3052Y2.2657
X3.318Y0.9774
X3.318Y0.938
X3.3189Y0.5079
X3.3307Y0.3937
X3.378Y1.0974
X3.4331Y0.6457
X3.4764Y0.6457
X3.4764Y0.5079
X3.4882Y0.3829
X3.5079Y1.0984
X3.5126Y1.5737
X3.5126Y1.5343
X3.5315Y0.3829
X3.5413Y2.4665
X3.5413Y2.4272
X3.5519Y1.5737
X3.5519Y1.5343
X3.5787Y2.0896
X3.5821Y2.4657
X3.5831Y2.4272
X3.5893Y1.5737
X3.5893Y1.5343
X3.6359Y1.1002
X3.6788Y1.1002
X3.7028Y1.9035
X3.7039Y1.9528
X3.7217Y1.1002
X3.752Y0.3829
X3.7697Y0.4823
X3.8169Y1.6614
X3.8268Y1.8386
X3.8994Y0.8093
X3.9002Y0.7694
X3.9396Y0.8088
X3.9396Y0.7694
X3.9744Y1.8378
X3.977Y0.8088
X3.977Y0.7694
X3.9823Y2.2502
X4.0197Y0.437
X4.0217Y2.25
X4.0236Y1.8366
X4.0591Y0.437
X4.06Y0.624
X4.061Y2.25
X4.0615Y0.6747
X4.0669Y1.9343
X4.0965Y0.437
X4.0984Y2.25
X4.1161Y1.9331
X4.1254Y1.387
X4.1339Y2.25
X4.1647Y1.387
X4.1713Y2.25
X4.2021Y1.387
X4.2323Y0.6398
X4.2572Y1.387
X4.2966Y1.387
X4.3159Y0.4016
X4.334Y1.387
X4.3439Y1.5888
X4.3439Y1.5494
X4.3736Y1.171
X4.3736Y1.1306
X4.4061Y2.2892
X4.4061Y2.2498
X4.413Y1.171
X4.413Y1.1316
X4.4455Y2.2892
X4.4455Y2.2498
X4.4504Y1.171
X4.4504Y1.1316
X4.4829Y2.2892
X4.4829Y2.2498
X4.4882Y2.7854
X4.4882Y2.7461
X4.5413Y2.9941
X4.5807Y2.9941
X4.6201Y2.9941
X4.6398Y0.4315
X4.6405Y0.3916
X4.6437Y2.5945
X4.6604Y2.4577
X4.6604Y2.4183
X4.6634Y1.6644
X4.6799Y0.431
X4.6799Y0.3916
X4.6998Y2.4577
X4.6998Y2.4183
X4.7173Y0.431
X4.7173Y0.3916
X4.7372Y2.4577
X4.7372Y2.4183
T2
X1.1201Y0.3051
X1.1988Y0.3051
T3
X1.1656Y2.968
X1.2656Y2.968
X1.3656Y2.968
T4
X1.3996Y2.053
X1.3996Y1.953
X1.3996Y1.853
X1.3996Y1.753
X1.3996Y1.653
X1.3996Y1.553
X1.3996Y1.453
X1.3996Y1.353
X1.3996Y1.253
X1.3996Y1.153
X1.3996Y1.053
X1.3996Y0.953
X1.3996Y0.853
X1.3996Y0.753
X1.5008Y0.2461
X1.5008Y0.1461
X1.6008Y0.2461
X1.6008Y0.1461
X1.7008Y0.2461
X1.7008Y0.1461
X4.0079Y0.9961
X4.1079Y0.9961
X4.2079Y0.9961
X4.3079Y0.9961
X4.4079Y0.9961
X4.5079Y0.9961
X4.6079Y0.9961
X4.6083Y1.5648
X4.6083Y1.4648
X4.6083Y1.3648
X4.6083Y1.2648
T5
X0.138Y2.6209
X0.138Y2.5209
X0.138Y2.4209
X0.138Y2.3209
X0.138Y2.2209
X0.138Y2.1209
X0.138Y2.0209
X0.138Y1.9209
X0.138Y1.8209
X0.138Y1.7209
X0.138Y1.6209
X0.138Y1.5209
X0.138Y1.4209
X0.138Y1.3209
X0.138Y1.2209
X0.138Y1.1209
X0.138Y1.0209
X0.138Y0.9209
X0.138Y0.8209
X1.138Y2.6209
X1.138Y2.5209
X1.138Y2.4209
X1.138Y2.3209
X1.138Y2.2209
X1.138Y2.1209
X1.138Y2.0209
X1.138Y1.9209
X1.138Y1.8209
X1.138Y1.7209
X1.138Y1.6209
X1.138Y1.5209
X1.138Y1.4209
X1.138Y1.3209
X1.138Y1.2209
X1.138Y1.1209
X1.138Y1.0209
X1.138Y0.9209
X1.138Y0.8209
T6
X0.4763Y0.2953
X0.5126Y3.1516
X0.6263Y0.2953
X0.6626Y3.1516
X0.7763Y0.2953
X0.8126Y3.1516
X0.9263Y0.2953
X0.9626Y3.1516
X1.5028Y3.1516
X1.6528Y3.1516
X1.8028Y3.1516
X1.9528Y3.1516
X2.0413Y0.2953
X2.1913Y0.2953
X2.3413Y0.2953
X2.4913Y0.2953
X2.687Y0.2953
X2.837Y0.2953
X2.987Y0.2953
X3.137Y0.2953
X3.1902Y3.1516
X3.3326Y0.2953
X3.3402Y3.1516
X3.4826Y0.2953
X3.6326Y0.2953
X3.7826Y0.2953
X3.9409Y0.3189
X3.9409Y0.063
X4.1181Y0.3189
X4.1181Y0.063
X4.2421Y0.3189
X4.2421Y0.063
X4.4193Y0.3189
X4.4193Y0.063
T7
X2.2563Y3.2913
X2.4531Y3.2913
X2.65Y3.2913
X3.7982Y3.2894
X3.9951Y3.2894
X4.1919Y3.2894
T8
X2.7598Y2.9429
X2.7598Y2.4705
X4.3018Y2.9409
X4.3018Y2.4685
T7
G00X2.2795Y2.9406
M15
G01X2.2795Y2.9453
M16
G05
G00X2.2795Y2.4681
M15
G01X2.2795Y2.4728
M16
G05
G00X2.8386Y2.7047
M15
G01X2.8386Y2.7087
M16
G05
G00X3.8215Y2.9386
M15
G01X3.8215Y2.9433
M16
G05
G00X3.8215Y2.4661
M15
G01X3.8215Y2.4709
M16
G05
G00X4.3805Y2.7028
M15
G01X4.3805Y2.7067
M16
G05
T0
M30
