%TF.GenerationSoftware,KiCad,Pcbnew,7.0.7*%
%TF.CreationDate,2024-04-10T19:08:45+02:00*%
%TF.ProjectId,ControllerCircuit,436f6e74-726f-46c6-9c65-724369726375,rev?*%
%TF.SameCoordinates,Original*%
%TF.FileFunction,Profile,NP*%
%FSLAX46Y46*%
G04 Gerber Fmt 4.6, Leading zero omitted, Abs format (unit mm)*
G04 Created by KiCad (PCBNEW 7.0.7) date 2024-04-10 19:08:45*
%MOMM*%
%LPD*%
G01*
G04 APERTURE LIST*
%TA.AperFunction,Profile*%
%ADD10C,0.050000*%
%TD*%
%TA.AperFunction,Profile*%
%ADD11C,0.100000*%
%TD*%
G04 APERTURE END LIST*
D10*
X120500000Y87550000D02*
X2000000Y87550000D01*
X2000000Y87550000D02*
G75*
G03*
X0Y85550000I0J-2000000D01*
G01*
X120500000Y0D02*
G75*
G03*
X122500000Y2000000I0J2000000D01*
G01*
X120500000Y0D02*
X2000000Y0D01*
X0Y2000000D02*
G75*
G03*
X2000000Y0I2000000J0D01*
G01*
X0Y80250000D02*
X750000Y79500000D01*
X0Y2000000D02*
X0Y8000000D01*
X122500000Y2000000D02*
X122500000Y7250000D01*
X122500000Y7250000D02*
X121750000Y8000000D01*
X122500000Y79500000D02*
X121750000Y78750000D01*
X122500000Y85550000D02*
X122500000Y79500000D01*
D11*
X99675000Y72500000D02*
X98875000Y72500000D01*
X98875000Y86500000D02*
X99675000Y86500000D01*
X98875000Y72500000D02*
X98875000Y86500000D01*
X99675000Y86500000D02*
X99675000Y72500000D01*
X109175000Y76600000D02*
X108375000Y76600000D01*
X108375000Y76600000D02*
X108375000Y86500000D01*
X109175000Y86500000D02*
X109175000Y76600000D01*
X108375000Y86500000D02*
X109175000Y86500000D01*
D10*
X121750000Y8000000D02*
X121750000Y78750000D01*
D11*
X59675000Y72550000D02*
X59675000Y86550000D01*
X69075000Y76650000D02*
X69075000Y86550000D01*
X69075000Y86550000D02*
X69875000Y86550000D01*
X60475000Y72550000D02*
X59675000Y72550000D01*
X69875000Y76650000D02*
X69075000Y76650000D01*
X69875000Y86550000D02*
X69875000Y76650000D01*
X60475000Y86550000D02*
X60475000Y72550000D01*
X64975000Y69550000D02*
X64075000Y69550000D01*
X59675000Y86550000D02*
X60475000Y86550000D01*
X64075000Y86550000D02*
X64975000Y86550000D01*
X64975000Y86550000D02*
X64975000Y69550000D01*
X64075000Y69550000D02*
X64075000Y86550000D01*
X103275000Y69500000D02*
X103275000Y86500000D01*
X104175000Y69500000D02*
X103275000Y69500000D01*
D10*
X122500000Y85550000D02*
G75*
G03*
X120500000Y87550000I-2000000J0D01*
G01*
X0Y85550000D02*
X0Y80250000D01*
D11*
X104175000Y86500000D02*
X104175000Y69500000D01*
D10*
X750000Y79500000D02*
X750000Y8750000D01*
X0Y8000000D02*
X750000Y8750000D01*
D11*
X103275000Y86500000D02*
X104175000Y86500000D01*
M02*
